<svg width="375" height="812" viewBox="0 0 375 812" fill="none" xmlns="http://www.w3.org/2000/svg">
<g clip-path="url(#clip0_35_352)">
<rect width="375" height="812" fill="white"/>
<path opacity="0.2" d="M109.032 198.5C109.032 237.053 75.2223 268.5 33.2661 268.5C-8.69002 268.5 -42.5 237.053 -42.5 198.5C-42.5 159.947 -8.69002 128.5 33.2661 128.5C75.2223 128.5 109.032 159.947 109.032 198.5Z" stroke="white" stroke-width="3"/>
<g opacity="0.1">
<path d="M427.32 591.28C448.91 595.53 460.64 624.77 457.07 650.27C453.5 675.77 434.46 697.7 419.33 713.51C404.2 729.32 392.81 739.01 380.74 751.59C368.67 764.17 355.75 779.47 337.56 786.95C319.37 794.43 295.74 793.92 283.84 781.34C272.11 768.76 271.94 743.94 264.29 721.33C256.64 698.72 241.34 678.49 242.02 659.11C242.7 639.9 259.36 621.88 278.91 616.78C298.29 611.85 320.73 620.01 347.59 613.72C374.45 607.6 405.73 587.03 427.32 591.28Z" fill="#71BB5E"/>
</g>
<g opacity="0.1">
<path d="M46.4981 248.873C32.8355 266.122 1.46955 263.164 -19.5668 248.316C-40.6031 233.468 -51.3831 206.501 -58.5122 185.811C-65.6413 165.122 -69.0416 150.559 -74.7 134.069C-80.3584 117.579 -88.0459 99.0881 -86.3683 79.4919C-84.6907 59.8957 -73.4191 39.121 -56.7869 34.3006C-40.2325 29.6314 -18.0885 40.8432 5.51514 44.3932C29.1188 47.9432 54.1088 43.6024 71.0272 53.0794C87.7945 62.4786 96.1879 85.5399 91.7718 105.256C87.2823 124.742 69.7543 140.957 63.0495 167.716C56.1936 194.398 60.1608 231.625 46.4981 248.873Z" fill="#0095DA"/>
</g>
</g>
<defs>
<clipPath id="clip0_35_352">
<rect width="375" height="812" fill="white"/>
</clipPath>
</defs>
</svg>
