<svg width="24" height="24" viewBox="0 0 24 24" fill="none" xmlns="http://www.w3.org/2000/svg">
<path fill-rule="evenodd" clip-rule="evenodd" d="M4.35941 5.0607C4.36141 5.0607 4.31141 5.1127 4.24841 5.1747C4.00641 5.4097 3.50541 5.8987 3.50036 6.9217C3.49241 8.3527 4.43341 11.0097 8.96441 15.5397C13.4744 20.0477 16.1274 20.9997 17.5614 20.9997H17.5824C18.6054 20.9947 19.0934 20.4927 19.3294 20.2517C19.4014 20.1777 19.4594 20.1237 19.5004 20.0897C20.4964 19.0877 21.0064 18.3417 21.0014 17.8637C20.9944 17.3757 20.3874 16.7987 19.5484 16.0007C19.2814 15.7467 18.9914 15.4707 18.6854 15.1647C17.8924 14.3737 17.4994 14.5087 16.6354 14.8127C15.4404 15.2317 13.8004 15.8017 11.2524 13.2527C8.70041 10.7027 9.27141 9.0647 9.68941 7.8697C9.99141 7.0057 10.1294 6.6117 9.33541 5.8177C9.02441 5.5077 8.74541 5.2137 8.48841 4.9437C7.69541 4.1097 7.12341 3.5067 6.63841 3.4997H6.63041C6.15141 3.4997 5.40741 4.0117 4.35441 5.0647C4.35741 5.0617 4.35841 5.0607 4.35941 5.0607ZM17.5624 22.4997C15.0704 22.4997 11.8214 20.5157 7.90441 16.6007C3.97241 12.6697 1.98541 9.4107 2.00033 6.9137C2.00941 5.2637 2.87441 4.4187 3.19941 4.1017C3.21641 4.0807 3.27441 4.0237 3.29441 4.0037C4.72841 2.5687 5.69541 1.9887 6.65741 1.99955C7.77441 2.0147 8.56941 2.8507 9.57541 3.9097C9.82441 4.1717 10.0944 4.4567 10.3954 4.7567C11.8554 6.2167 11.4394 7.4077 11.1054 8.3637C10.7414 9.4067 10.4264 10.3067 12.3124 12.1927C14.2004 14.0787 15.1004 13.7637 16.1394 13.3967C17.0964 13.0627 18.2844 12.6447 19.7464 14.1047C20.0424 14.4007 20.3234 14.6677 20.5824 14.9147C21.6464 15.9257 22.4864 16.7247 22.5006 17.8447C22.5124 18.7997 21.9324 19.7727 20.5004 21.2057L19.8664 20.7757L20.4024 21.2997C20.0854 21.6247 19.2414 22.4907 17.5904 22.4997H17.5624Z" fill="#0095DA"/>
</svg>
