<svg width="321" height="214" viewBox="0 0 321 214" fill="none" xmlns="http://www.w3.org/2000/svg">
<path d="M152.293 50.0653L151.94 49.648C152.036 49.5624 161.677 41.5374 175.619 37.4714C188.491 33.705 207.783 32.6457 226.498 48.9311L226.144 49.3377C207.612 33.2128 188.534 34.2614 175.79 37.985C161.966 42.0189 152.389 49.9904 152.293 50.0653Z" fill="#DADADA"/>
<path d="M301.034 154.101C299.022 132.669 290.719 116.405 269.191 104.475C262.845 100.954 254.895 99.2318 251.086 93.0579C247.309 86.9268 248.711 79.0837 247.962 71.9147C246.036 53.5214 228.466 39.3118 210.084 37.3644C191.701 35.417 173.404 43.7416 159.441 55.8647C148.965 64.9597 139.785 76.5585 126.581 80.8171C104.806 87.8363 81.1167 72.1822 58.7751 77.0828C46.759 79.7257 36.6689 88.1466 29.3073 98.0013C16.9809 114.501 13.91 135.376 17.6764 155.621C19.7415 166.695 24.7812 177.93 32.0144 186.544L291.072 185.998C298.648 178.444 301.89 163.293 301.034 154.101Z" fill="#F6F5F5"/>
<path d="M115.421 71.5081C126.477 71.5081 135.441 62.545 135.441 51.4884C135.441 40.4318 126.477 31.4687 115.421 31.4687C104.364 31.4687 95.4011 40.4318 95.4011 51.4884C95.4011 62.545 104.364 71.5081 115.421 71.5081Z" fill="#F6F5F5"/>
<path d="M154.648 39.495C157.886 36.2566 157.886 31.0061 154.648 27.7677C151.409 24.5293 146.159 24.5293 142.92 27.7677C139.682 31.0061 139.682 36.2566 142.92 39.495C146.159 42.7334 151.409 42.7334 154.648 39.495Z" fill="#F6F5F5"/>
<path d="M281.601 97.3856C284.84 94.1472 284.84 88.8967 281.601 85.6583C278.363 82.42 273.113 82.42 269.874 85.6583C266.636 88.8967 266.636 94.1472 269.874 97.3856C273.113 100.624 278.363 100.624 281.601 97.3856Z" fill="#F6F5F5"/>
<path d="M299.793 186.319L299.311 186.062C309.037 167.722 310.075 148.002 302.136 131.963C293.79 115.1 276.766 103.758 254.189 100.024L254.275 99.4886C277.023 103.255 294.196 114.704 302.617 131.717C310.632 147.927 309.604 167.829 299.793 186.319Z" fill="#DADADA"/>
<path d="M33.5338 187.1C21.8173 174.474 14.0812 159.27 11.1708 143.134C8.46367 128.111 10.2078 113.195 16.1035 101.147C25.1985 82.5398 42.8107 72.9526 64.414 74.8358L64.3712 75.3708C42.9926 73.509 25.573 82.9892 16.585 101.393C10.7428 113.334 9.00937 128.133 11.6951 143.048C14.5841 159.088 22.2774 174.196 33.9297 186.736L33.5338 187.1Z" fill="#DADADA"/>
<path d="M110.199 147.339H40.5851V186.522H110.199V147.339Z" fill="#FF9064"/>
<path opacity="0.5" d="M65.5268 147.339H40.5851V186.522H65.5268V147.339Z" fill="#B25834"/>
<path opacity="0.3" d="M78.721 147.331L78.721 156.875L85.2159 156.875L85.2159 147.331L78.721 147.331Z" fill="white"/>
<path d="M211.432 104.646H96.4391V186.522H211.432V104.646Z" fill="#102048"/>
<path d="M222.624 75.7025H201.352V56.282C201.352 52.3658 204.53 49.1879 208.447 49.1879C210.405 49.1879 212.181 49.9797 213.465 51.2637C214.727 52.5263 215.53 54.2811 215.541 56.2178V56.282L215.53 68.6084C215.53 68.6726 215.53 68.7368 215.541 68.7903V69.1648L215.562 69.1541C215.84 72.8135 218.89 75.7025 222.624 75.7025Z" fill="#86A7FF"/>
<path d="M229.718 64.3177V68.6084C229.718 70.5665 228.926 72.3427 227.642 73.616C226.369 74.9 224.593 75.6918 222.635 75.6918C218.901 75.6918 215.84 72.8028 215.573 69.1434L229.718 64.3177Z" fill="#D3DFFF"/>
<path d="M208.447 49.1879C208.297 49.1879 208.147 49.1986 208.008 49.2093C207.912 49.22 207.815 49.22 207.73 49.2307C207.623 49.2414 207.527 49.2521 207.43 49.2735C207.366 49.2842 207.313 49.2949 207.248 49.3056C207.173 49.3163 207.099 49.3377 207.024 49.3484C206.917 49.3698 206.81 49.3912 206.703 49.4233C206.553 49.4661 206.403 49.5089 206.253 49.5624C206.178 49.5838 206.103 49.6159 206.029 49.6373C205.954 49.6587 205.879 49.6908 205.815 49.7229C205.708 49.7657 205.611 49.8085 205.515 49.8513C205.429 49.8941 205.344 49.9262 205.258 49.9797C205.237 49.9904 205.205 50.0011 205.183 50.0225C205.108 50.0653 205.033 50.1081 204.959 50.1509C204.659 50.3221 204.37 50.504 204.113 50.718C204.038 50.7822 203.953 50.8464 203.889 50.8999C203.803 50.9748 203.728 51.039 203.642 51.1139C203.557 51.1888 203.482 51.2637 203.407 51.3386C203.193 51.5526 203 51.7773 202.808 52.0234C202.722 52.1304 202.647 52.2374 202.572 52.3444C202.337 52.7082 202.134 53.0827 201.952 53.4893C201.909 53.5856 201.866 53.6926 201.823 53.7889C201.706 54.0992 201.609 54.4202 201.535 54.7412C201.513 54.8589 201.492 54.9659 201.47 55.0729C201.428 55.2976 201.395 55.5223 201.385 55.747V155.236H106.561V60.2517C106.561 54.142 111.515 49.1986 117.614 49.1986H208.447V49.1879Z" fill="#D3DFFF"/>
<path d="M189.722 59.3315H117.764V63.1193H189.722V59.3315Z" fill="#ADC3FF"/>
<path d="M184.147 70.4167H117.764V74.2045H184.147V70.4167Z" fill="#ADC3FF"/>
<path d="M180.648 81.5126H117.764V85.3004H180.648V81.5126Z" fill="#ADC3FF"/>
<path d="M189.722 92.5978H117.764V96.3856H189.722V92.5978Z" fill="#ADC3FF"/>
<path d="M184.586 103.822H145.573V107.61H184.586V103.822Z" fill="#ADC3FF"/>
<path opacity="0.3" d="M201.385 108.07V155.214H106.561V103.961L136.179 128.603C137.816 129.962 139.956 130.486 142.064 130.187C142.674 130.101 143.305 130.069 143.926 130.08L164.117 130.647C164.812 130.668 165.508 130.754 166.182 130.904C168.279 131.353 170.462 130.947 172.195 129.663L201.385 108.07Z" fill="#86A7FF"/>
<path d="M139.678 138.586L138.886 139.464L103.201 179.032L96.4498 186.522V104.646L139.678 138.586Z" fill="#7D69ED"/>
<path d="M211.432 104.646L168.193 138.586L211.432 186.522V104.646Z" fill="#7D69ED"/>
<path d="M138.886 139.464L103.201 179.032L96.4391 180.52V165.968C114.276 153.181 134.285 138.362 138.865 138.041L138.886 139.464Z" fill="#5B4DAD"/>
<path d="M168.985 139.464L204.67 179.032L211.432 180.52V165.968C193.595 153.181 173.586 138.362 169.007 138.041L168.985 139.464Z" fill="#5B4DAD"/>
<path d="M211.432 186.522H96.4391L96.4605 175.747L136.083 139.806C138.158 137.923 140.866 136.874 143.68 136.874H163.881C166.642 136.874 169.317 137.891 171.382 139.721L211.539 175.373L211.432 186.522Z" fill="#7D69ED"/>
<path opacity="0.4" d="M217.755 180.735C225.469 173.021 225.469 160.515 217.755 152.801C210.041 145.088 197.535 145.088 189.821 152.801C182.108 160.515 182.108 173.021 189.821 180.735C197.535 188.448 210.041 188.448 217.755 180.735Z" fill="#5B4DAD"/>
<path d="M223.705 180.736C231.418 173.023 231.418 160.516 223.705 152.803C215.991 145.089 203.485 145.089 195.771 152.803C188.057 160.516 188.057 173.023 195.771 180.736C203.485 188.45 215.991 188.45 223.705 180.736Z" fill="#EB5D60"/>
<path d="M209.313 177.47C208.372 177.47 207.473 177.074 206.831 176.368L199.844 168.653C199.245 167.99 199.287 166.963 199.962 166.364C200.625 165.764 201.652 165.807 202.251 166.481L209.239 174.196C209.249 174.207 209.281 174.239 209.335 174.228C209.388 174.217 209.41 174.185 209.41 174.164L216.932 157.044C217.296 156.22 218.248 155.845 219.072 156.209C219.896 156.573 220.27 157.525 219.906 158.349L212.384 175.469C211.924 176.518 210.983 177.246 209.859 177.427C209.677 177.46 209.495 177.47 209.313 177.47Z" fill="white"/>
<path d="M72.6851 136.425L73.3164 147.328H90.0833L82.5077 141.112L82.0583 136.425L79.0837 133.536L72.6851 136.425Z" fill="#102048"/>
<path d="M52.5691 131.556L49.8727 141.293L63.665 147.328L59.6097 138.137L60.5941 133.985L57.1701 129.481L52.5691 131.556Z" fill="#102048"/>
<path d="M57.8977 83.2245C57.8977 83.2245 56.2713 89.9869 56.817 104.871C56.817 104.871 52.0341 121.552 52.5798 131.556L60.6048 133.996C64.8099 124.655 68.266 115.667 70.1064 107.449C71.0266 104.539 71.0052 101.425 70.0529 98.5256L66.1902 86.7449L57.8977 83.2245Z" fill="#1F3C88"/>
<path d="M83.3316 105.17L82.0583 136.414H72.6851C70.2348 126.239 69.336 117.55 69.015 111.729C68.7475 106.818 68.8973 103.95 68.8973 103.95C62.8732 96.8349 59.2887 91.6989 57.2022 87.8897C54.1099 82.2508 54.2918 79.533 54.6449 77.6177C55.105 75.0711 56.7635 71.7648 57.887 69.7425C58.5183 68.619 58.9784 67.8807 58.9784 67.8807L74.6646 72.9311L72.7921 79.7149L72.76 79.8219C72.4818 80.8384 72.6209 81.9298 73.1452 82.85L81.3735 97.1773C82.7645 99.6062 83.4493 102.378 83.3316 105.17Z" fill="#3A6BEA"/>
<path d="M78.4524 136.628H78.4417C78.3347 136.618 78.2491 136.521 78.2491 136.414C78.2705 136.104 80.2072 105.031 77.9067 100.088C77.5001 99.221 76.8153 98.1082 76.0235 96.8242C72.7065 91.4528 67.1639 82.4648 68.3302 69.5071C68.3409 69.4001 68.4372 69.3145 68.5549 69.3252C68.6619 69.3359 68.7475 69.4322 68.7368 69.5499C67.5812 82.3685 73.0917 91.2923 76.3766 96.6209C77.1791 97.9156 77.8639 99.0391 78.2812 99.9272C80.6245 104.967 78.7413 135.173 78.6557 136.457C78.645 136.543 78.5594 136.628 78.4524 136.628Z" fill="#1F3C88"/>
<path opacity="0.6" d="M74.6646 72.9418L72.7921 79.7149C65.5696 76.7403 60.3801 72.2249 57.887 69.7532C58.5183 68.6297 58.9784 67.8914 58.9784 67.8914L74.6646 72.9418Z" fill="#1F3C88"/>
<path d="M77.3182 141.55L77.1577 138.843L82.3258 138.747C82.4649 138.747 82.529 138.832 82.529 138.95C82.529 139.057 82.4435 139.153 82.3258 139.153L77.575 139.239L77.682 141.122L82.4863 140.908C82.5933 140.908 82.6895 140.994 82.7002 141.101C82.7002 141.208 82.6146 141.304 82.5076 141.315L77.3182 141.55Z" fill="white"/>
<path d="M59.6097 138.34C59.5883 138.34 59.5669 138.34 59.5455 138.33L55.0943 136.906L56.2071 134.317L60.134 135.729C60.241 135.772 60.2945 135.879 60.2517 135.986C60.2089 136.093 60.1019 136.147 59.9949 136.104L56.4318 134.82L55.6507 136.65L59.6739 137.934C59.7809 137.966 59.8451 138.083 59.8023 138.19C59.7702 138.287 59.6953 138.34 59.6097 138.34Z" fill="white"/>
<path d="M80.2072 43.0033L79.9183 44.0947L78.752 48.5138L77.9602 51.4777L70.9303 48.9525L74.3222 42.0189L75.97 39.6221L80.2072 43.0033Z" fill="#F9B384"/>
<path d="M79.9182 44.0946L78.752 48.5137C76.6762 46.2667 77.1042 43.4526 77.1042 43.4526L79.9182 44.0946Z" fill="#102048"/>
<path d="M85.4822 36.7866C85.4822 36.7866 85.0328 46.7911 79.9825 45.9351C74.9321 45.0791 75.0284 36.4656 75.0284 36.4656L81.6088 34.347L85.4822 36.7866Z" fill="#F9B384"/>
<path d="M78.4737 38.2953C78.4737 38.2953 81.3734 35.31 85.4822 36.7866C85.4822 36.7866 87.3012 37.557 88.0074 36.0697C88.0074 36.0697 82.1866 28.355 77.6284 32.0786C77.6284 32.0786 69.4429 33.8655 74.3114 42.0189L78.4737 38.2953Z" fill="#102048"/>
<path d="M78.8385 40.2713C79.6846 40.1364 80.2453 39.2417 80.0908 38.273C79.9363 37.3043 79.1251 36.6284 78.279 36.7633C77.4328 36.8983 76.8721 37.793 77.0266 38.7617C77.1811 39.7304 77.9923 40.4063 78.8385 40.2713Z" fill="#F9B384"/>
<path d="M85.66 41.9745C85.7393 41.4845 85.4064 41.0229 84.9163 40.9436C84.4263 40.8643 83.9647 41.1972 83.8854 41.6873C83.8061 42.1773 84.139 42.6389 84.6291 42.7182C85.1191 42.7975 85.5807 42.4646 85.66 41.9745Z" fill="#F9B384"/>
<path opacity="0.4" d="M81.2664 42.4576C82.1233 42.4576 82.8179 41.7629 82.8179 40.9061C82.8179 40.0492 82.1233 39.3546 81.2664 39.3546C80.4096 39.3546 79.715 40.0492 79.715 40.9061C79.715 41.7629 80.4096 42.4576 81.2664 42.4576Z" fill="#EB5D60"/>
<path d="M110.467 57.0952C110.467 57.0952 111.398 58.3685 109.493 59.6525C109.493 59.6525 111.002 60.6904 105.802 62.3916C105.224 62.5842 104.56 62.7768 103.801 62.9801L101.714 55.3939C101.714 55.3939 111.002 52.2588 111.237 53.2646C111.473 54.2704 109.579 55.6293 109.579 55.6293C109.579 55.6293 112.906 54.8054 110.467 57.0952Z" fill="#F9B384"/>
<path d="M101.714 55.3939L90.7145 56.8063C90.7145 56.8063 74.8892 45.5392 71.6472 46.6199C68.4051 47.7006 57.4483 65.2807 57.4483 65.2807C57.4483 65.2807 54.4737 66.2223 54.6128 67.4421C54.7519 68.6619 73.9584 78.6236 76.5264 76.0984C78.1421 74.5148 79.9931 61.8567 79.9931 61.8567L86.9909 64.7671C89.0667 65.6338 91.3565 65.8264 93.55 65.3235L103.811 62.9802L101.714 55.3939Z" fill="#FBC343"/>
<g opacity="0.8">
<path opacity="0.8" d="M101.019 62.1669C100.644 60.6903 100.27 59.2458 99.938 57.8655C99.8417 57.4803 99.7561 57.0844 99.6705 56.6885C99.5956 56.3568 99.5207 56.0144 99.4458 55.6827L99.0392 55.7362C99.1248 56.0786 99.1997 56.4317 99.2746 56.7741C99.3602 57.17 99.4458 57.5659 99.5421 57.9618C99.8738 59.3528 100.248 60.7973 100.623 62.2739C100.741 62.7233 100.858 63.1727 100.965 63.6328L101.361 63.5472C101.254 63.0764 101.136 62.627 101.019 62.1669Z" fill="white"/>
<path opacity="0.8" d="M82.1867 51.178C82.0155 51.2101 81.855 51.2529 81.6838 51.285C78.6343 51.9163 75.3708 52.43 72.1822 51.8949C70.5665 51.6167 69.0792 51.0603 67.8059 50.2792C67.7203 50.3862 67.6347 50.4932 67.5491 50.6002C68.8759 51.4241 70.4274 52.0126 72.1073 52.2909C75.3601 52.8366 78.6664 52.3229 81.7587 51.6809C82.069 51.6167 82.3686 51.5525 82.6789 51.4883C82.5184 51.3813 82.3579 51.2743 82.1867 51.178Z" fill="white"/>
<path opacity="0.8" d="M77.9709 70.6627C77.0507 70.7376 76.1091 70.8125 75.1889 70.7269C72.4818 70.4701 70.085 68.7902 68.5228 67.549C67.9664 67.1103 67.4207 66.6502 66.875 66.1901C65.4947 65.0238 64.0609 63.8254 62.4452 62.9266C61.5143 62.413 60.5727 62.0385 59.6418 61.8138C59.5669 61.9315 59.492 62.0492 59.4064 62.1669C60.3373 62.3809 61.3003 62.7554 62.2419 63.2797C63.8148 64.1571 65.2379 65.3448 66.6075 66.5004C67.1532 66.9605 67.6989 67.4206 68.266 67.8593C69.871 69.1326 72.3427 70.8553 75.1461 71.1228C76.0984 71.2084 77.0614 71.1335 78.003 71.0586C78.0993 71.0479 78.1849 71.0479 78.2812 71.0372C78.3133 70.8981 78.3454 70.759 78.3775 70.6199C78.2491 70.6413 78.11 70.652 77.9709 70.6627Z" fill="white"/>
</g>
<path d="M79.9825 61.8566L77.1363 60.6047C77.1363 60.6047 77.8639 65.1308 79.2335 65.7728L79.9825 61.8566Z" fill="#E49B31"/>
<path d="M105.802 62.3917C105.224 62.5843 104.56 62.7769 103.801 62.9802L101.714 55.3939L105.802 62.3917Z" fill="#E28B6D"/>
<path d="M230.97 108.156L237.594 111.13L242.537 94.8769L236.063 93.1756C234.362 96.9955 232.618 101.885 230.97 108.156Z" fill="#E28B6D"/>
<path d="M236.074 93.1756L242.548 94.8769L248.069 79.715C248.058 79.7043 241.392 78.8055 236.074 93.1756Z" fill="#102048"/>
<path d="M228.22 102.517L223.448 115.678L241.296 122.536L244.902 108.83L228.22 102.517Z" fill="#102048"/>
<path d="M234.095 120.065C233.966 120.439 232.896 120.878 232.211 120.279C230.874 120.043 229.975 119.872 229.14 118.952C228.391 118.663 228.06 117.85 228.402 117.165C229.055 115.849 230.071 113.998 230.553 114.073C231.163 114.169 230.724 116.041 230.724 116.041C230.724 116.041 231.73 113.666 232.693 113.976C233.121 114.115 232.094 116.373 231.987 116.619C232.147 116.405 233.431 114.672 233.923 115.036C234.416 115.399 233.217 117.443 233.089 117.657C233.228 117.486 234.351 116.127 234.908 116.576C235.143 116.758 234.769 118.139 234.095 120.065Z" fill="#E28B6D"/>
<path d="M267.628 165.369C267.628 165.369 276.285 164.427 279.933 156.445L270.336 156.99L267.628 165.369Z" fill="#102048"/>
<path d="M277.183 156.53L268.891 161.666L272.625 167.155L280.618 161.698L277.183 156.53Z" fill="#E28B6D"/>
<path d="M285.754 169.424L280.618 161.698L272.625 167.155L273.984 169.156L273.171 179.835L285.754 169.424Z" fill="#102048"/>
<path d="M278.031 168.677L273.971 168.884L273.999 169.429L278.059 169.222L278.031 168.677Z" fill="white"/>
<path d="M253.558 171.136L244.452 170.601V177.973L254.253 177.352L253.558 171.136Z" fill="#E28B6D"/>
<path d="M244.452 177.973V179.706L237.604 186.555H255.281L254.253 177.352L244.452 177.973Z" fill="#102048"/>
<path d="M244.378 179.587L244.104 180.059L247.981 182.31L248.255 181.838L244.378 179.587Z" fill="white"/>
<path d="M253.098 124.056C252.959 127.405 252.927 130.947 252.991 134.51C253.044 137.602 253.162 140.716 253.323 143.765C254.104 158.895 255.901 172.302 255.901 172.302L241.831 174.11C235.165 127.587 239.487 107.92 239.487 107.92L245.619 106.668L251.065 105.555L257.164 104.314C257.089 104.432 257.014 104.55 256.939 104.667C256.008 106.187 255.27 108.209 254.703 110.617C253.825 114.362 253.323 119.005 253.098 124.056Z" fill="#3A6BEA"/>
<path d="M253.322 143.776C247.427 131.235 249.642 121.274 249.642 121.274L253.108 124.056C252.969 127.405 252.937 130.947 253.001 134.51C253.044 137.613 253.162 140.726 253.322 143.776Z" fill="#1F3C88"/>
<path d="M279.933 156.445C273.171 159.013 267.628 165.368 267.628 165.368C261.786 155.054 256.811 144.685 252.991 134.52C249.813 126.057 247.448 117.732 246.079 109.664C245.907 108.658 245.758 107.663 245.618 106.679C245.597 106.583 245.586 106.486 245.576 106.401L251.065 105.577L256.95 104.689L259.924 104.239C260.245 106.133 260.673 108.113 261.187 110.156C266.302 130.508 279.933 156.445 279.933 156.445Z" fill="#3A6BEA"/>
<g opacity="0.8">
<path opacity="0.8" d="M268.035 130.497C267.949 130.283 267.864 130.069 267.778 129.855C266.665 129.149 265.606 128.368 264.697 127.426C262.15 124.815 260.855 120.931 261.326 117.315C261.476 116.202 261.786 115.1 262.246 114.073C262.193 113.88 262.129 113.677 262.075 113.484C261.497 114.683 261.101 115.956 260.93 117.272C260.438 121.017 261.776 125.019 264.408 127.726C265.478 128.817 266.74 129.695 268.035 130.497Z" fill="white"/>
<path opacity="0.8" d="M275.118 146.654C275.065 146.537 275.001 146.419 274.947 146.29C273.46 146.9 271.662 147.007 269.811 147.114C267.939 147.221 266.002 147.328 264.301 147.992C262.578 148.666 261.24 149.864 260.267 151.341C260.331 151.48 260.406 151.63 260.481 151.769C261.422 150.271 262.738 149.04 264.45 148.377C266.088 147.735 267.992 147.628 269.833 147.521C271.662 147.414 273.535 147.307 275.118 146.654Z" fill="white"/>
<path opacity="0.8" d="M242.708 145.113C247.213 147.403 250.851 151.223 254.071 154.818C254.05 154.594 254.039 154.369 254.018 154.155C250.861 150.656 247.288 146.986 242.89 144.76C241.488 144.043 240.044 143.53 238.599 143.187C238.61 143.326 238.621 143.466 238.621 143.615C240.001 143.936 241.371 144.439 242.708 145.113Z" fill="white"/>
<path opacity="0.8" d="M255.152 165.989C254.029 166.257 252.798 166.192 251.782 165.946C250.722 165.7 249.684 165.294 248.679 164.898C247.609 164.48 246.507 164.042 245.362 163.785C243.767 163.432 242.087 163.475 240.493 163.86C240.504 163.999 240.525 164.127 240.547 164.266C242.098 163.881 243.725 163.838 245.276 164.181C246.389 164.427 247.48 164.855 248.54 165.272C249.556 165.679 250.605 166.085 251.696 166.342C252.755 166.588 254.029 166.663 255.206 166.385C255.184 166.257 255.163 166.118 255.152 165.989Z" fill="white"/>
<path opacity="0.8" d="M241.488 127.897C241.638 130.733 240.354 133.515 238.235 135.355C238.246 135.526 238.246 135.708 238.257 135.879C240.611 133.964 242.055 130.936 241.895 127.876C241.756 125.147 240.343 122.59 238.257 120.889C238.246 121.06 238.246 121.231 238.235 121.402C240.108 123.029 241.36 125.383 241.488 127.897Z" fill="white"/>
</g>
<path opacity="0.4" d="M261.176 110.146C259.026 110.531 256.832 110.659 254.713 110.627C251.557 110.574 248.572 110.157 246.089 109.664C242.162 108.894 239.498 107.931 239.498 107.931L245.629 106.679C245.608 106.583 245.597 106.486 245.586 106.401L251.075 105.577L257.174 104.336C257.1 104.453 257.025 104.571 256.95 104.689L259.924 104.239C260.235 106.123 260.663 108.102 261.176 110.146Z" fill="#1F3C88"/>
<path d="M252.991 134.788C252.884 134.788 252.777 134.724 252.734 134.606L248.828 123.617L244.131 120.782C244.003 120.707 243.96 120.535 244.035 120.407C244.11 120.279 244.281 120.236 244.409 120.311L249.267 123.243L253.237 134.413C253.29 134.552 253.215 134.713 253.076 134.756C253.055 134.788 253.023 134.788 252.991 134.788Z" fill="#1F3C88"/>
<path d="M262.214 106.326C253.151 109.771 237.594 107.835 237.594 107.835C238.225 101.254 238.268 81.7694 248.411 79.3405L252.948 79.8113C255.323 80.7422 257.175 84.2946 258.576 88.5104C259.411 91.0249 260.085 93.7641 260.62 96.3428C261.733 101.736 262.214 106.326 262.214 106.326Z" fill="#1F3C88"/>
<path d="M260.62 96.3535C256.351 93.8711 255.452 88.275 255.452 88.275L258.576 88.5211C259.422 91.0249 260.096 93.7748 260.62 96.3535Z" fill="#102048"/>
<path d="M252.959 79.8219L252.349 88.5424L261.658 93.5179L263.541 84.4764C255.355 79.64 252.959 79.8219 252.959 79.8219Z" fill="#1F3C88"/>
<path d="M270.689 91.8059C270.464 92.1376 270.218 92.4586 269.94 92.7368C269.426 93.2718 268.827 93.6998 268.163 94.0208C267.168 94.5023 266.088 94.7056 265.018 94.6414C264.119 94.5879 263.241 94.3418 262.417 93.9031L261.658 93.4965L263.541 84.455C264.044 84.7546 264.568 85.0756 265.125 85.4073C265.125 85.4073 272.497 74.9962 273.032 75.1995C273.524 75.3814 272.689 76.9864 272.518 77.3074C272.839 76.8366 275.225 73.327 275.867 73.5731C276.381 73.7657 275.728 75.3172 275.653 75.5098C275.803 75.2958 277.076 73.4126 277.858 73.862C278.211 74.076 276.83 76.1197 276.702 76.323C276.873 76.1625 278.403 74.6752 278.778 75.1246C279.163 75.574 277.676 77.3395 277.515 77.5428C277.665 77.4037 278.981 76.2695 279.388 76.8152C279.944 77.5535 273.246 87.9111 270.689 91.8059Z" fill="#E28B6D"/>
<path opacity="0.4" d="M269.94 92.7476C269.426 93.2826 268.827 93.7105 268.163 94.0315C267.168 94.513 266.088 94.7163 265.018 94.6521C264.964 94.4595 264.943 94.2562 264.943 94.0529C264.943 92.5764 266.141 91.3887 267.607 91.3887C268.613 91.3887 269.48 91.9344 269.94 92.7476Z" fill="#EB5D60"/>
<path d="M247.352 106.005C243.35 106.005 239.766 105.748 238.011 105.598C237.893 105.588 237.818 105.577 237.797 105.577C237.69 105.577 237.594 105.481 237.604 105.374C237.604 105.267 237.69 105.17 237.807 105.17C237.818 105.17 237.904 105.181 238.054 105.192C242.055 105.534 255.601 106.433 261.732 103.565C261.829 103.522 261.957 103.565 262 103.662C262.043 103.769 262 103.886 261.904 103.929C258.394 105.577 252.52 106.005 247.352 106.005Z" fill="#86A7FF"/>
<path d="M249.471 85.493C247.32 85.493 246.368 84.0698 246.357 84.0484C246.293 83.9521 246.325 83.8344 246.421 83.7702C246.517 83.706 246.635 83.7381 246.699 83.8344C246.774 83.9414 248.465 86.4346 252.745 84.1233C252.841 84.0698 252.969 84.1019 253.023 84.2089C253.076 84.3052 253.044 84.4336 252.937 84.4871C251.546 85.2361 250.401 85.493 249.471 85.493Z" fill="#86A7FF"/>
<path d="M256.597 62.8625C257.731 62.2205 259.261 62.167 260.277 62.9909C260.802 63.4189 261.144 64.0395 261.626 64.5103C262.674 65.5268 264.301 65.7836 265.296 66.8429C266.066 67.6561 266.344 68.8545 266.269 69.978C266.195 71.1015 265.799 72.1715 265.381 73.2201C264.782 74.7074 264.097 76.2268 262.899 77.2968C262.439 77.7034 261.904 78.0458 261.305 78.1849C260.705 78.324 260.042 78.2384 259.55 77.8639C259.036 77.468 258.779 76.8046 258.737 76.1626C258.694 75.5206 258.833 74.8679 258.961 74.2366C259.282 74.4399 259.732 74.4292 260.053 74.2259C260.374 74.0226 260.566 73.616 260.524 73.2415C260.449 72.5995 259.807 72.1929 259.24 71.8826C258.298 71.369 257.346 70.8447 256.404 70.3311C255.848 70.0315 255.281 69.7105 254.874 69.2397C254.178 68.4479 253.622 66.7038 254.082 65.7087C254.596 64.5959 255.527 63.4617 256.597 62.8625Z" fill="#FBB81D"/>
<path d="M245.383 68.1162C245.383 68.1162 245.33 61.7069 253.29 63.3975C254.638 63.6864 255.815 64.414 256.682 65.484C257.977 67.089 258.811 73.83 255.109 75.6918C250.455 78.0351 245.383 68.1162 245.383 68.1162Z" fill="#FBC343"/>
<path d="M253.622 73.5303L253.44 79.9717C253.387 81.6088 252.103 82.9356 250.466 83.0212C250.412 83.0319 250.359 83.0319 250.305 83.0319C248.475 83.0319 247.02 81.459 247.181 79.6186L247.191 79.5116L247.609 74.6217L248.144 74.5254L253.622 73.5303Z" fill="#E28B6D"/>
<path d="M250.904 75.8309C250.904 75.8309 249.909 78.3133 247.191 79.501L247.609 74.6111L248.144 74.5148L250.904 75.8309Z" fill="#102048"/>
<path d="M245.383 68.1161C245.383 68.1161 243.35 76.5691 247.619 76.9757C251.878 77.3823 253.643 73.5303 253.643 73.5303L254.189 68.726L251.557 64.9382L247.363 66.2222L245.383 68.1161Z" fill="#E28B6D"/>
<path d="M245.383 68.1161C245.383 68.1161 249.299 65.9226 250.722 68.8651C251.717 70.9195 253.226 72.043 254.713 71.3689C256.201 70.6948 254.981 65.8264 254.981 65.8264L249.438 64.4033L246.121 66.2971L245.383 68.1161Z" fill="#FBC343"/>
<path d="M254.899 72.3211C255.411 71.4358 255.232 70.3755 254.5 69.953C253.768 69.5305 252.76 69.9057 252.249 70.791C251.738 71.6763 251.917 72.7366 252.649 73.1591C253.381 73.5816 254.388 73.2065 254.899 72.3211Z" fill="#E28B6D"/>
<path d="M253.151 72.2892C253.066 72.2785 253.012 72.2143 253.012 72.1394C253.044 71.6579 253.355 70.7484 254.253 70.7484C254.328 70.7484 254.393 70.8126 254.393 70.8875C254.393 70.9624 254.328 71.0266 254.253 71.0266C253.376 71.0266 253.29 72.118 253.28 72.1608C253.29 72.2357 253.226 72.2892 253.151 72.2892Z" fill="#102048"/>
<path d="M246.025 71.155C246.025 71.3476 245.875 71.4974 245.683 71.4974C245.49 71.4974 245.34 71.3476 245.34 71.155C245.34 70.9624 245.49 70.8126 245.683 70.8126C245.875 70.8126 246.025 70.9624 246.025 71.155Z" fill="#102048"/>
<path d="M248.326 71.5081C248.538 71.5081 248.711 71.3356 248.711 71.1229C248.711 70.9101 248.538 70.7377 248.326 70.7377C248.113 70.7377 247.94 70.9101 247.94 71.1229C247.94 71.3356 248.113 71.5081 248.326 71.5081Z" fill="#102048"/>
<path d="M246.742 73.2629C246.442 73.2629 246.239 73.1666 246.132 72.9847C245.865 72.4925 246.485 71.5829 246.613 71.401C246.656 71.3368 246.742 71.3261 246.806 71.3689C246.87 71.4117 246.881 71.4973 246.838 71.5615C246.506 72.0216 246.239 72.6209 246.378 72.8563C246.432 72.9633 246.581 73.0061 246.817 72.9954C246.817 72.9954 246.817 72.9954 246.827 72.9954C246.902 72.9954 246.956 73.0489 246.967 73.1238C246.967 73.1987 246.913 73.2629 246.838 73.2629C246.806 73.2629 246.774 73.2629 246.742 73.2629Z" fill="#102048"/>
<path opacity="0.4" d="M250.71 73.7884C251.327 73.5328 251.62 72.8255 251.364 72.2085C251.109 71.5916 250.401 71.2986 249.784 71.5542C249.167 71.8097 248.874 72.5171 249.13 73.134C249.385 73.751 250.093 74.0439 250.71 73.7884Z" fill="#EB5D60"/>
<path d="M246.913 74.4291C246.549 74.4291 246.293 74.3007 246.271 74.29C246.207 74.2579 246.175 74.1723 246.218 74.1081C246.25 74.0439 246.335 74.0118 246.4 74.0546C246.432 74.0653 247.159 74.4291 247.919 73.7337C247.972 73.6802 248.058 73.6909 248.112 73.7444C248.165 73.7979 248.154 73.8835 248.101 73.937C247.673 74.3221 247.245 74.4291 246.913 74.4291Z" fill="#102048"/>
<path d="M246.442 70.3953C246.186 70.3418 245.961 70.2669 245.747 70.2669C245.64 70.2562 245.544 70.2776 245.437 70.299C245.33 70.3204 245.233 70.3739 245.105 70.4274H245.094C245.051 70.4488 245.009 70.4274 244.987 70.3846C244.976 70.3632 244.976 70.3418 244.987 70.3204C245.051 70.1813 245.148 70.0529 245.287 69.978C245.426 69.9031 245.597 69.8603 245.747 69.871C246.057 69.9031 246.346 70.0315 246.528 70.2669C246.56 70.299 246.549 70.3525 246.517 70.3846C246.496 70.3953 246.474 70.406 246.453 70.3953H246.442Z" fill="#102048"/>
<path d="M247.437 70.2776C247.63 69.9565 247.972 69.7318 248.379 69.689C248.582 69.6783 248.786 69.7211 248.957 69.8174C249.128 69.9137 249.267 70.0529 249.353 70.2134C249.374 70.2562 249.363 70.299 249.321 70.3204C249.299 70.3311 249.267 70.3311 249.246 70.3204H249.235C249.075 70.2562 248.946 70.1706 248.807 70.1385C248.668 70.085 248.54 70.0743 248.4 70.085C248.122 70.0957 247.844 70.2348 247.555 70.3846H247.544C247.502 70.406 247.459 70.3953 247.437 70.3525C247.427 70.3311 247.427 70.299 247.437 70.2776Z" fill="#102048"/>
<path d="M311.991 186.287H11.7272V186.833H311.991V186.287Z" fill="#102048"/>
</svg>
