<svg width="26" height="26" viewBox="0 0 26 26" fill="none" xmlns="http://www.w3.org/2000/svg">
<path d="M23.9231 12.3449C23.0305 10.4645 21.9683 8.9309 20.7366 7.74414L19.4447 9.03602C20.4981 10.0428 21.4158 11.3598 22.2092 13C20.0967 17.3723 17.0981 19.4492 13 19.4492C11.7699 19.4492 10.6369 19.2598 9.60098 18.881L8.2012 20.2808C9.64 20.9452 11.2396 21.2773 13 21.2773C17.8801 21.2773 21.5211 18.7357 23.9231 13.6525C24.0196 13.4481 24.0697 13.2248 24.0697 12.9987C24.0697 12.7726 24.0196 12.5494 23.9231 12.3449V12.3449ZM22.309 4.20367L21.2266 3.12C21.2077 3.10111 21.1853 3.08613 21.1607 3.07591C21.136 3.06569 21.1096 3.06042 21.0829 3.06042C21.0562 3.06042 21.0298 3.06569 21.0051 3.07591C20.9804 3.08613 20.958 3.10111 20.9392 3.12L18.1622 5.8957C16.6311 5.11367 14.9104 4.72266 13 4.72266C8.11995 4.72266 4.47893 7.26426 2.07698 12.3475C1.98043 12.5519 1.93036 12.7752 1.93036 13.0013C1.93036 13.2274 1.98043 13.4506 2.07698 13.6551C3.03657 15.6762 4.19185 17.2962 5.5428 18.5151L2.85596 21.2012C2.8179 21.2393 2.79652 21.2909 2.79652 21.3448C2.79652 21.3986 2.8179 21.4503 2.85596 21.4883L3.93989 22.5723C3.97798 22.6103 4.02962 22.6317 4.08347 22.6317C4.13732 22.6317 4.18897 22.6103 4.22706 22.5723L22.309 4.49109C22.3279 4.47223 22.3429 4.44983 22.3531 4.42517C22.3633 4.40051 22.3686 4.37408 22.3686 4.34738C22.3686 4.32069 22.3633 4.29426 22.3531 4.2696C22.3429 4.24494 22.3279 4.22254 22.309 4.20367ZM3.79085 13C5.90589 8.62774 8.90452 6.55078 13 6.55078C14.3848 6.55078 15.644 6.78844 16.7863 7.27162L15.0013 9.05658C14.156 8.60555 13.1881 8.43816 12.2404 8.5791C11.2926 8.72004 10.4153 9.16185 9.73782 9.83936C9.06032 10.5169 8.61851 11.3942 8.47757 12.3419C8.33662 13.2896 8.50402 14.2575 8.95505 15.1029L6.83696 17.2209C5.66467 16.1863 4.65413 14.7845 3.79085 13ZM10.0547 13C10.0552 12.5523 10.1612 12.111 10.3643 11.7119C10.5673 11.3129 10.8616 10.9674 11.2233 10.7034C11.5849 10.4395 12.0038 10.2646 12.4457 10.193C12.8877 10.1213 13.3403 10.1549 13.7668 10.2911L10.1895 13.8684C10.0999 13.5876 10.0544 13.2947 10.0547 13V13Z" fill="#828282"/>
<path d="M12.8984 15.8437C12.8105 15.8437 12.7239 15.8397 12.6381 15.8318L11.297 17.1729C12.1036 17.4819 12.9825 17.5505 13.8273 17.3706C14.6721 17.1907 15.4467 16.7699 16.0575 16.1591C16.6683 15.5484 17.0891 14.7737 17.269 13.9289C17.4489 13.0841 17.3802 12.2052 17.0713 11.3986L15.7302 12.7397C15.7381 12.8256 15.7421 12.9121 15.7421 13C15.7423 13.3735 15.6689 13.7434 15.5261 14.0885C15.3832 14.4336 15.1738 14.7472 14.9097 15.0113C14.6456 15.2754 14.332 15.4848 13.9869 15.6277C13.6418 15.7705 13.2719 15.8439 12.8984 15.8437V15.8437Z" fill="#828282"/>
</svg>
