<svg width="30" height="30" viewBox="0 0 30 30" fill="none" xmlns="http://www.w3.org/2000/svg">
<path fill-rule="evenodd" clip-rule="evenodd" d="M15.334 2.50061C16.229 2.50061 17.099 2.86811 17.7228 3.50686C18.3453 4.14936 18.689 5.03061 18.6628 5.92436C18.6653 6.12561 18.7315 6.35811 18.8515 6.56186C19.0503 6.89936 19.364 7.13686 19.7365 7.23436C20.109 7.32686 20.499 7.27686 20.8303 7.08061C22.4303 6.16686 24.4665 6.71436 25.3803 8.30186L26.159 9.65061C26.179 9.68686 26.1965 9.72186 26.2115 9.75811C27.039 11.3219 26.4865 13.2906 24.949 14.1894C24.7253 14.3181 24.544 14.4981 24.419 14.7156C24.2253 15.0519 24.1715 15.4519 24.269 15.8194C24.369 16.1944 24.6078 16.5056 24.944 16.6981C25.7028 17.1344 26.269 17.8694 26.4953 18.7181C26.7215 19.5656 26.5978 20.4856 26.1565 21.2444L25.3265 22.6269C24.4128 24.1969 22.3765 24.7406 20.7928 23.8256C20.5815 23.7044 20.3378 23.6381 20.0953 23.6319H20.0878C19.7265 23.6319 19.3553 23.7856 19.0853 24.0544C18.8115 24.3281 18.6615 24.6931 18.664 25.0806C18.6553 26.9169 17.1615 28.4019 15.334 28.4019H13.7678C11.9315 28.4019 10.4378 26.9094 10.4378 25.0731C10.4353 24.8469 10.3703 24.6119 10.249 24.4081C10.0528 24.0656 9.73528 23.8206 9.36903 23.7231C9.00528 23.6256 8.60653 23.6794 8.27903 23.8694C7.49403 24.3069 6.57028 24.4131 5.72528 24.1756C4.88153 23.9369 4.15278 23.3569 3.72528 22.5881L2.94403 21.2419C2.03028 19.6569 2.57403 17.6256 4.15653 16.7106C4.60528 16.4519 4.88403 15.9694 4.88403 15.4519C4.88403 14.9344 4.60528 14.4506 4.15653 14.1919C2.57278 13.2719 2.03028 11.2356 2.94278 9.65061L3.79028 8.25936C4.69153 6.69186 6.72903 6.13936 8.31778 7.05186C8.53403 7.18061 8.76903 7.24561 9.00778 7.24811C9.78653 7.24811 10.4378 6.60561 10.4503 5.81561C10.4453 4.94436 10.789 4.10811 11.4153 3.47686C12.044 2.84686 12.879 2.50061 13.7678 2.50061H15.334ZM15.334 4.37561H13.7678C13.3803 4.37561 13.0178 4.52686 12.744 4.79936C12.4715 5.07311 12.3228 5.43686 12.3253 5.82436C12.299 7.65186 10.8053 9.12311 8.99653 9.12311C8.41653 9.11686 7.85778 8.96061 7.37278 8.67061C6.69153 8.28311 5.80153 8.52186 5.40278 9.21561L4.55653 10.6069C4.16903 11.2794 4.40653 12.1681 5.09653 12.5694C6.12028 13.1619 6.75903 14.2669 6.75903 15.4519C6.75903 16.6369 6.12028 17.7406 5.09403 18.3344C4.40778 18.7319 4.17028 19.6156 4.56778 20.3031L5.35653 21.6631C5.55153 22.0144 5.87028 22.2681 6.23903 22.3719C6.60653 22.4744 7.01153 22.4306 7.34903 22.2431C7.84528 21.9519 8.42278 21.8006 9.00278 21.8006C9.28903 21.8006 9.57528 21.8369 9.85528 21.9119C10.7003 22.1394 11.434 22.7044 11.869 23.4631C12.1515 23.9394 12.3078 24.4956 12.3128 25.0631C12.3128 25.8756 12.9653 26.5269 13.7678 26.5269H15.334C16.1328 26.5269 16.7853 25.8794 16.789 25.0806C16.784 24.1981 17.129 23.3594 17.7603 22.7281C18.3828 22.1056 19.2528 21.7319 20.1228 21.7569C20.6928 21.7706 21.2415 21.9244 21.7253 22.1994C22.4215 22.5981 23.3103 22.3606 23.7128 21.6731L24.5428 20.2894C24.7278 19.9706 24.7815 19.5706 24.6828 19.2019C24.5853 18.8331 24.3403 18.5131 24.0103 18.3244C23.2378 17.8794 22.6865 17.1619 22.4578 16.3019C22.2315 15.4581 22.3553 14.5369 22.7965 13.7781C23.084 13.2781 23.5053 12.8569 24.0103 12.5669C24.6878 12.1706 24.9253 11.2844 24.5315 10.5944C24.5153 10.5669 24.5003 10.5381 24.4878 10.5081L23.7553 9.23811C23.3565 8.54436 22.469 8.30561 21.7728 8.70186C21.0203 9.14686 20.1253 9.27436 19.2653 9.04811C18.4065 8.82561 17.6865 8.28186 17.2378 7.51436C16.9503 7.03436 16.794 6.47561 16.789 5.90686C16.8003 5.47936 16.6503 5.09561 16.3778 4.81436C16.1065 4.53436 15.7253 4.37561 15.334 4.37561ZM14.5564 11.2182C16.8902 11.2182 18.7889 13.1182 18.7889 15.452C18.7889 17.7857 16.8902 19.6832 14.5564 19.6832C12.2227 19.6832 10.3239 17.7857 10.3239 15.452C10.3239 13.1182 12.2227 11.2182 14.5564 11.2182ZM14.5564 13.0932C13.2564 13.0932 12.1989 14.152 12.1989 15.452C12.1989 16.752 13.2564 17.8082 14.5564 17.8082C15.8564 17.8082 16.9139 16.752 16.9139 15.452C16.9139 14.152 15.8564 13.0932 14.5564 13.0932Z" fill="#2F1155"/>
</svg>
