<svg width="26" height="26" viewBox="0 0 26 26" fill="none" xmlns="http://www.w3.org/2000/svg">
<path d="M23.9231 12.3449C21.516 7.27441 17.8776 4.72266 13 4.72266C8.11995 4.72266 4.48401 7.27441 2.07698 12.3475C1.98043 12.5519 1.93036 12.7752 1.93036 13.0013C1.93036 13.2274 1.98043 13.4506 2.07698 13.6551C4.48401 18.7256 8.12249 21.2773 13 21.2773C17.8801 21.2773 21.516 18.7256 23.9231 13.6525C24.1186 13.2412 24.1186 12.7639 23.9231 12.3449V12.3449ZM13 19.4492C8.90452 19.4492 5.90589 17.3723 3.79085 13C5.90589 8.62773 8.90452 6.55078 13 6.55078C17.0955 6.55078 20.0942 8.62773 22.2092 13C20.0967 17.3723 17.0981 19.4492 13 19.4492ZM12.8985 8.53125C10.4305 8.53125 8.42971 10.532 8.42971 13C8.42971 15.468 10.4305 17.4688 12.8985 17.4688C15.3664 17.4688 17.3672 15.468 17.3672 13C17.3672 10.532 15.3664 8.53125 12.8985 8.53125ZM12.8985 15.8438C11.3268 15.8438 10.0547 14.5717 10.0547 13C10.0547 11.4283 11.3268 10.1562 12.8985 10.1562C14.4701 10.1562 15.7422 11.4283 15.7422 13C15.7422 14.5717 14.4701 15.8438 12.8985 15.8438Z" fill="#828282"/>
</svg>
